<svg width="93" height="67" viewBox="0 0 93 67" fill="none" xmlns="http://www.w3.org/2000/svg">
<g clip-path="url(#clip0_45_275)">
<path fill-rule="evenodd" clip-rule="evenodd" d="M67.1673 33.5661C67.6422 33.1205 67.673 32.3705 67.2331 31.8896C66.7928 31.4071 66.0528 31.3778 65.5779 31.8235C65.102 32.2676 65.073 33.0191 65.5128 33.5C65.9514 33.981 66.693 34.0104 67.1673 33.5661ZM7.13095 36.3694C7.13095 36.3694 -7.57942 48.8658 24.7443 51.5666C24.7443 51.5666 -16.0618 56.2844 7.13095 36.3694ZM14.6883 38.4271C13.7868 35.2369 14.9743 32.3176 15.6798 30.9748C15.6305 31.1189 15.584 31.263 15.539 31.4057C15.597 31.2851 15.6536 31.1733 15.7073 31.0704C15.896 30.7115 16.0499 30.4659 16.1211 30.357C16.1268 30.3041 16.1326 30.2497 16.1384 30.1968C17.9937 13.7269 31.7976 0.934875 48.5501 0.934875C57.1219 0.934875 64.9204 4.2817 70.7416 9.75816C105.942 4.66807 88.9211 29.0143 88.6535 29.3938C98.365 10.8847 79.6505 15.4844 76.2141 16.459C79.2892 21.4285 81.0955 27.2833 81.173 33.5617C81.175 33.6852 81.176 33.8102 81.176 33.9353C81.176 34.0618 81.175 34.1883 81.173 34.3132C81.0482 47.607 73.1761 59.021 61.9109 64.1507L61.9097 64.1519C60.992 64.5694 60.0503 64.9446 59.0889 65.2773C59.0717 65.2829 59.0557 65.2891 59.0385 65.2935C58.4689 65.445 57.906 65.5876 57.347 65.7185C55.1099 66.2475 52.9614 66.6152 50.9016 66.8494C50.1266 66.9067 49.3423 66.9348 48.5514 66.9348C45.9429 66.9348 43.405 66.6245 40.9736 66.0375C38.5422 65.4524 36.2166 64.5905 34.0289 63.487C34.0289 63.487 34.0289 63.4858 34.0275 63.4858C33.5571 63.2489 33.0926 62.9991 32.6338 62.7386C28.1975 60.8399 16.4593 58.1529 15.5579 57.9473C19.4236 58.7754 23.3911 58.7973 26.7981 58.5132C26.7923 58.5076 26.7851 58.5019 26.7793 58.4957C27.1074 58.4751 27.4369 58.4502 27.7679 58.4222C31.3855 58.0514 34.2496 57.371 35.4804 57.0457C44.2108 54.6897 51.1889 50.1893 58.838 41.7252L59.3153 41.2784L59.4924 41.4728L59.2225 46.0349L63.0463 42.4538L63.7998 38.7461C64.7261 38.1902 65.6973 37.4575 66.6366 36.5782C68.5034 34.8295 69.6443 33.1441 70.3671 31.3983C70.8203 30.3042 71.524 28.7496 71.0916 28.276C70.6636 27.8069 69.0459 28.3863 67.9504 28.7482C66.1704 29.3335 64.4499 30.3645 62.5715 32.1233C61.6747 32.9632 60.9065 33.844 60.3 34.7001L56.4195 35.1913L52.5955 38.7709L57.1059 38.8576L57.283 39.052L56.8058 39.4988C56.8058 39.4988 26.0128 50.4598 17.0401 42.4774C17.0284 42.4668 17.0182 42.4581 17.0067 42.4462H17.0052C16.0936 41.4798 15.4679 40.4902 15.06 39.512C15.0571 39.5077 15.0555 39.5051 15.0555 39.502C14.9249 39.1904 14.8176 38.88 14.729 38.5723C14.7144 38.5237 14.6999 38.4756 14.6884 38.4271H14.6883ZM68.1983 15.2602C67.1692 15.2602 67.1705 13.6423 68.1983 13.6423C69.2273 13.6423 69.2248 15.2602 68.1983 15.2602ZM63.9395 10.5545C62.537 10.5545 62.5383 8.34841 63.9395 8.34841C65.3431 8.34841 65.3412 10.5545 63.9395 10.5545ZM63.3582 22.614C62.3291 22.614 62.3323 20.9966 63.3582 20.9966C64.3879 20.9966 64.3859 22.614 63.3582 22.614ZM68.1011 10.2598C68.5686 10.2598 68.5686 10.9959 68.1011 10.9959C67.6336 10.9959 67.6336 10.2598 68.1011 10.2598ZM60.7454 6.68155C60.2779 6.68155 60.2797 5.94653 60.7454 5.94653C61.2146 5.94653 61.2129 6.68155 60.7454 6.68155ZM56.681 16.7802C56.2135 16.7802 56.2147 16.0441 56.681 16.0441C57.1496 16.0441 57.1485 16.7802 56.681 16.7802ZM55.3265 9.42589C54.8591 9.42589 54.8591 8.69087 55.3265 8.69087C55.794 8.69087 55.794 9.42589 55.3265 9.42589ZM53.9721 3.86275C53.2229 3.86275 53.2241 2.68629 53.9721 2.68629C54.7194 2.68629 54.7182 3.86275 53.9721 3.86275ZM48.4555 6.04338C47.4264 6.04338 47.4277 4.42548 48.4555 4.42548C49.4851 4.42548 49.4821 6.04338 48.4555 6.04338ZM41.0025 15.1134C40.5351 15.1134 40.5369 14.3784 41.0025 14.3784C41.4718 14.3784 41.47 15.1134 41.0025 15.1134ZM35.5837 5.40725C35.1163 5.40725 35.1163 4.67126 35.5837 4.67126C36.0512 4.67126 36.0512 5.40725 35.5837 5.40725Z" fill="url(#paint0_linear_45_275)"/>
</g>
<defs>
<linearGradient id="paint0_linear_45_275" x1="19.0639" y1="43.4574" x2="96.0934" y2="26.3827" gradientUnits="userSpaceOnUse">
<stop stop-color="#ED1C24"/>
<stop offset="0.4" stop-color="#841844"/>
<stop offset="1" stop-color="#1B1464"/>
</linearGradient>
<clipPath id="clip0_45_275">
<rect width="93" height="66" fill="white" transform="translate(0 0.934845)"/>
</clipPath>
</defs>
</svg>
